<svg xmlns="http://www.w3.org/2000/svg" version="1.1" xmlns:xlink="http://www.w3.org/1999/xlink" xmlns:svgjs="http://svgjs.dev/svgjs" width="1500" height="935" viewBox="0 0 1500 935"><g transform="matrix(1,0,0,1,-0.9090909090909918,0.3785425101214628)"><svg viewBox="0 0 396 247" data-background-color="#ffffff" preserveAspectRatio="xMidYMid meet" height="935" width="1500" xmlns="http://www.w3.org/2000/svg" xmlns:xlink="http://www.w3.org/1999/xlink"><g id="tight-bounds" transform="matrix(1,0,0,1,0.2400000000000091,-0.09999999999999432)"><svg viewBox="0 0 395.52 247.2" height="247.2" width="395.52"><g><svg></svg></g><g><svg viewBox="0 0 395.52 247.2" height="247.2" width="395.52"><g transform="matrix(1,0,0,1,39.55199999999999,73.1274477876106)"><svg viewBox="0 0 316.416 100.94510442477876" height="100.94510442477876" width="316.416"><g><svg viewBox="0 0 316.416 100.94510442477876" height="100.94510442477876" width="316.416"><g><svg viewBox="0 0 316.416 100.94510442477876" height="100.94510442477876" width="316.416"><g id="textblocktransform"><svg viewBox="0 0 316.416 100.94510442477876" height="100.94510442477876" width="316.416" id="textblock"><g><svg viewBox="0 0 316.416 100.94510442477876" height="100.94510442477876" width="316.416"><g transform="matrix(1,0,0,1,0,0)"><svg width="316.416" viewBox="0.75 -35.75 113 36.05" height="100.94510442477876" data-palette-color="#15616d"><path d="M0.75-35.5L3.45-35.5 16.95-3.2 30.45-35.5 33.15-35.5 18.2 0 15.75 0 0.75-35.5ZM58.45-20.3L52.2-35.25 54.7-35.25 60-22.35 65.3-35.25 67.8-35.25 61.55-20.3 69-3 82.6-35.5 85.4-35.5 70.2 0 67.85 0 60.05-18.25 52.2 0 49.85 0 34.7-35.5 37.45-35.5 51.1-3 58.45-20.3ZM111.85-31.6L110.55-29.6Q109.7-30.55 108.65-31.28 107.6-32 106.4-32.48 105.2-32.95 103.8-33.2 102.4-33.45 100.8-33.45L100.8-33.45Q95.6-33.45 93.22-31.48 90.85-29.5 90.85-26.15L90.85-26.15Q90.85-23.9 91.92-22.58 93-21.25 95.3-20.45 97.6-19.65 101.25-18.9L101.25-18.9Q105.1-18.1 107.9-17.03 110.7-15.95 112.22-14.1 113.75-12.25 113.75-9.1L113.75-9.1Q113.75-6.75 112.85-4.98 111.95-3.2 110.25-2.05 108.55-0.9 106.22-0.3 103.9 0.3 101.05 0.3L101.05 0.3Q98.3 0.3 95.8-0.3 93.3-0.9 91.1-2.05 88.9-3.2 87-5L87-5 88.35-7.05Q89.45-5.85 90.82-4.93 92.2-4 93.82-3.35 95.45-2.7 97.3-2.33 99.15-1.95 101.15-1.95L101.15-1.95Q105.8-1.95 108.42-3.68 111.05-5.4 111.05-8.8L111.05-8.8Q111.05-11.15 109.85-12.6 108.65-14.05 106.15-14.98 103.65-15.9 99.9-16.7L99.9-16.7Q96.15-17.5 93.52-18.5 90.9-19.5 89.57-21.2 88.25-22.9 88.25-25.8L88.25-25.8Q88.25-29 89.82-31.23 91.4-33.45 94.25-34.6 97.1-35.75 100.8-35.75L100.8-35.75Q103.1-35.75 105.07-35.3 107.05-34.85 108.72-33.93 110.4-33 111.85-31.6L111.85-31.6Z" opacity="1" transform="matrix(1,0,0,1,0,0)" fill="#15616d" class="wordmark-text-0" data-fill-palette-color="primary" id="text-0"></path></svg></g></svg></g></svg></g></svg></g></svg></g></svg></g><g><path d="M0 247.2v-247.2h395.52v247.2zM386.417 238.097v-228.994h-377.314v228.994z" fill="#15616d" fill-rule="nonzero" stroke="none" stroke-width="1" stroke-linecap="butt" stroke-linejoin="miter" stroke-miterlimit="10" stroke-dasharray="" stroke-dashoffset="0" font-family="none" font-weight="none" font-size="none" text-anchor="none" style="mix-blend-mode: normal" data-fill-palette-color="tertiary"></path></g></svg></g><defs></defs></svg><rect width="395.52" height="247.2" fill="none" stroke="none" visibility="hidden"></rect></g></svg></g></svg>